<svg width="1920" height="600" viewBox="0 0 1920 600" fill="none" xmlns="http://www.w3.org/2000/svg">
<g clip-path="url(#clip0_395_2738)">
<rect width="1920" height="600" fill="url(#paint0_linear_395_2738)"/>
<rect width="1920" height="600" fill="url(#paint1_linear_395_2738)"/>
<circle cx="705" cy="357" r="243" fill="url(#paint2_linear_395_2738)" fill-opacity="0.5"/>
<path d="M794 -392.066L155 -21.6974V7.33078L794 -363.038V-392.066Z" fill="url(#paint3_radial_395_2738)" fill-opacity="0.5"/>
<path d="M794 -462L155 -91.6313V-62.6031L794 -432.972V-462Z" fill="url(#paint4_radial_395_2738)" fill-opacity="0.5"/>
<path d="M793.484 -322.562L155 47.5073V76.5355L793.484 -293.534V-322.562Z" fill="url(#paint5_radial_395_2738)" fill-opacity="0.5"/>
<path d="M794 -251.088L155 119.28V148.309L794 -222.06V-251.088Z" fill="url(#paint6_radial_395_2738)" fill-opacity="0.5"/>
<path d="M794 -181.154L155 189.214V218.242L794 -152.126V-181.154Z" fill="url(#paint7_radial_395_2738)" fill-opacity="0.5"/>
<path d="M794 -112.331L155 258.038V287.066L794 -83.3024V-112.331Z" fill="url(#paint8_radial_395_2738)" fill-opacity="0.5"/>
<path d="M794 -42.3969L155 327.972V357L794 -13.3686V-42.3969Z" fill="url(#paint9_radial_395_2738)" fill-opacity="0.5"/>
<path d="M1920 600H1177.79L987 300L1177.79 0H1920V600Z" fill="white"/>
</g>
<defs>
<linearGradient id="paint0_linear_395_2738" x1="610.667" y1="600" x2="365.985" y2="-56.8629" gradientUnits="userSpaceOnUse">
<stop stop-color="#0B2360"/>
<stop offset="0.755168" stop-color="#1B1B1B"/>
</linearGradient>
<linearGradient id="paint1_linear_395_2738" x1="610.667" y1="600" x2="365.985" y2="-56.8629" gradientUnits="userSpaceOnUse">
<stop stop-color="#0B2360" stop-opacity="0"/>
<stop offset="0.755168" stop-color="#1B1B1B"/>
</linearGradient>
<linearGradient id="paint2_linear_395_2738" x1="909" y1="220" x2="485" y2="431" gradientUnits="userSpaceOnUse">
<stop stop-color="#FDBD13"/>
<stop offset="0.59375" stop-color="#1B1B1B" stop-opacity="0"/>
<stop offset="1" stop-color="#D9D9D9" stop-opacity="0"/>
</linearGradient>
<radialGradient id="paint3_radial_395_2738" cx="0" cy="0" r="1" gradientUnits="userSpaceOnUse" gradientTransform="translate(474.5 -52.5) rotate(90) scale(409.5 319.5)">
<stop stop-color="#FDBD13"/>
<stop offset="1" stop-color="#1B1B1B"/>
</radialGradient>
<radialGradient id="paint4_radial_395_2738" cx="0" cy="0" r="1" gradientUnits="userSpaceOnUse" gradientTransform="translate(474.5 -52.5) rotate(90) scale(409.5 319.5)">
<stop stop-color="#FDBD13"/>
<stop offset="1" stop-color="#1B1B1B"/>
</radialGradient>
<radialGradient id="paint5_radial_395_2738" cx="0" cy="0" r="1" gradientUnits="userSpaceOnUse" gradientTransform="translate(474.5 -52.5) rotate(90) scale(409.5 319.5)">
<stop stop-color="#FDBD13"/>
<stop offset="1" stop-color="#1B1B1B"/>
</radialGradient>
<radialGradient id="paint6_radial_395_2738" cx="0" cy="0" r="1" gradientUnits="userSpaceOnUse" gradientTransform="translate(474.5 -52.5) rotate(90) scale(409.5 319.5)">
<stop stop-color="#FDBD13"/>
<stop offset="1" stop-color="#1B1B1B"/>
</radialGradient>
<radialGradient id="paint7_radial_395_2738" cx="0" cy="0" r="1" gradientUnits="userSpaceOnUse" gradientTransform="translate(474.5 -52.5) rotate(90) scale(409.5 319.5)">
<stop stop-color="#FDBD13"/>
<stop offset="1" stop-color="#1B1B1B"/>
</radialGradient>
<radialGradient id="paint8_radial_395_2738" cx="0" cy="0" r="1" gradientUnits="userSpaceOnUse" gradientTransform="translate(474.5 -52.5) rotate(90) scale(409.5 319.5)">
<stop stop-color="#FDBD13"/>
<stop offset="1" stop-color="#1B1B1B"/>
</radialGradient>
<radialGradient id="paint9_radial_395_2738" cx="0" cy="0" r="1" gradientUnits="userSpaceOnUse" gradientTransform="translate(474.5 -52.5) rotate(90) scale(409.5 319.5)">
<stop stop-color="#FDBD13"/>
<stop offset="1" stop-color="#1B1B1B"/>
</radialGradient>
<clipPath id="clip0_395_2738">
<rect width="1920" height="600" fill="white"/>
</clipPath>
</defs>
</svg>
