<svg width="273" height="36" viewBox="0 0 273 36" fill="none" xmlns="http://www.w3.org/2000/svg">
<path d="M280 36V0H65.9665L2.02222 32.4331C3.87583 34.5986 6.83245 36 10.1633 36H280Z" fill="url(#paint0_linear_557_5081)"/>
<path fill-rule="evenodd" clip-rule="evenodd" d="M10.1633 0C4.80631 0 0.417309 3.62492 0.0280695 8.22322L16.2407 0H10.1633ZM24.8437 0L0 12.6009V18.583L36.6377 0H24.8437Z" fill="url(#paint1_linear_557_5081)"/>
<path d="M0.225283 28.9811L57.3635 0H45.2406L0 22.9465V27.1111C0 27.7526 0.0776874 28.3782 0.225283 28.9811Z" fill="url(#paint2_linear_557_5081)"/>
<defs>
<linearGradient id="paint0_linear_557_5081" x1="63.3547" y1="-64.6349" x2="-0.774286" y2="48.4533" gradientUnits="userSpaceOnUse">
<stop offset="0.510567" stop-color="#FDBD13"/>
<stop offset="1" stop-color="#0B2360"/>
<stop offset="1" stop-color="#1B1B1B"/>
</linearGradient>
<linearGradient id="paint1_linear_557_5081" x1="63.3547" y1="-64.6349" x2="-0.774286" y2="48.4533" gradientUnits="userSpaceOnUse">
<stop offset="0.510567" stop-color="#FDBD13"/>
<stop offset="1" stop-color="#0B2360"/>
<stop offset="1" stop-color="#1B1B1B"/>
</linearGradient>
<linearGradient id="paint2_linear_557_5081" x1="63.3547" y1="-64.6349" x2="-0.774286" y2="48.4533" gradientUnits="userSpaceOnUse">
<stop offset="0.510567" stop-color="#FDBD13"/>
<stop offset="1" stop-color="#0B2360"/>
<stop offset="1" stop-color="#1B1B1B"/>
</linearGradient>
</defs>
</svg>
