<svg width="548" height="81" viewBox="0 0 548 81" fill="none" xmlns="http://www.w3.org/2000/svg">
<path d="M551 81V0H129.813L3.97944 72.9745C7.62708 77.8468 13.4453 81 20 81H551Z" fill="url(#paint0_linear_484_98)"/>
<path fill-rule="evenodd" clip-rule="evenodd" d="M20 0C9.45813 0 0.821205 8.15607 0.0552368 18.5022L31.9595 0H20ZM48.8888 0L0 28.3521V41.8117L72.0977 0H48.8888Z" fill="url(#paint1_linear_484_98)"/>
<path d="M0.443325 65.2074L112.883 0H89.027L0 51.6295V61C0 62.4433 0.152878 63.8509 0.443325 65.2074Z" fill="url(#paint2_linear_484_98)"/>
<defs>
<linearGradient id="paint0_linear_484_98" x1="124.673" y1="-145.429" x2="-28.8269" y2="91.3172" gradientUnits="userSpaceOnUse">
<stop offset="0.510567" stop-color="#FDBD13"/>
<stop offset="1" stop-color="#0B2360"/>
<stop offset="1" stop-color="#1B1B1B"/>
</linearGradient>
<linearGradient id="paint1_linear_484_98" x1="124.673" y1="-145.429" x2="-28.8269" y2="91.3172" gradientUnits="userSpaceOnUse">
<stop offset="0.510567" stop-color="#FDBD13"/>
<stop offset="1" stop-color="#0B2360"/>
<stop offset="1" stop-color="#1B1B1B"/>
</linearGradient>
<linearGradient id="paint2_linear_484_98" x1="124.673" y1="-145.429" x2="-28.8269" y2="91.3172" gradientUnits="userSpaceOnUse">
<stop offset="0.510567" stop-color="#FDBD13"/>
<stop offset="1" stop-color="#0B2360"/>
<stop offset="1" stop-color="#1B1B1B"/>
</linearGradient>
</defs>
</svg>
